<svg id="visual" viewBox="0 0 960 300" width="960" height="300" xmlns="http://www.w3.org/2000/svg" xmlns:xlink="http://www.w3.org/1999/xlink" version="1.1"><rect x="0" y="0" width="960" height="300" fill="#001220"></rect><path d="M0 108L22.8 103.7C45.7 99.3 91.3 90.7 137 87.8C182.7 85 228.3 88 274 87.7C319.7 87.3 365.3 83.7 411.2 84.8C457 86 503 92 548.8 91.3C594.7 90.7 640.3 83.3 686 86.7C731.7 90 777.3 104 823 111.3C868.7 118.7 914.3 119.3 937.2 119.7L960 120L960 0L937.2 0C914.3 0 868.7 0 823 0C777.3 0 731.7 0 686 0C640.3 0 594.7 0 548.8 0C503 0 457 0 411.2 0C365.3 0 319.7 0 274 0C228.3 0 182.7 0 137 0C91.3 0 45.7 0 22.8 0L0 0Z" fill="#fa7268"></path><path d="M0 60L22.8 63C45.7 66 91.3 72 137 78C182.7 84 228.3 90 274 90.5C319.7 91 365.3 86 411.2 85.3C457 84.7 503 88.3 548.8 87.2C594.7 86 640.3 80 686 75C731.7 70 777.3 66 823 69C868.7 72 914.3 82 937.2 87L960 92L960 0L937.2 0C914.3 0 868.7 0 823 0C777.3 0 731.7 0 686 0C640.3 0 594.7 0 548.8 0C503 0 457 0 411.2 0C365.3 0 319.7 0 274 0C228.3 0 182.7 0 137 0C91.3 0 45.7 0 22.8 0L0 0Z" fill="#ef5f67"></path><path d="M0 66L22.8 66.3C45.7 66.7 91.3 67.3 137 64.7C182.7 62 228.3 56 274 57.5C319.7 59 365.3 68 411.2 68.2C457 68.3 503 59.7 548.8 55C594.7 50.3 640.3 49.7 686 48.3C731.7 47 777.3 45 823 46.5C868.7 48 914.3 53 937.2 55.5L960 58L960 0L937.2 0C914.3 0 868.7 0 823 0C777.3 0 731.7 0 686 0C640.3 0 594.7 0 548.8 0C503 0 457 0 411.2 0C365.3 0 319.7 0 274 0C228.3 0 182.7 0 137 0C91.3 0 45.7 0 22.8 0L0 0Z" fill="#e34c67"></path><path d="M0 28L22.8 28.5C45.7 29 91.3 30 137 33.2C182.7 36.3 228.3 41.7 274 44.7C319.7 47.7 365.3 48.3 411.2 48.5C457 48.7 503 48.3 548.8 48.8C594.7 49.3 640.3 50.7 686 49.2C731.7 47.7 777.3 43.3 823 43.5C868.7 43.7 914.3 48.3 937.2 50.7L960 53L960 0L937.2 0C914.3 0 868.7 0 823 0C777.3 0 731.7 0 686 0C640.3 0 594.7 0 548.8 0C503 0 457 0 411.2 0C365.3 0 319.7 0 274 0C228.3 0 182.7 0 137 0C91.3 0 45.7 0 22.8 0L0 0Z" fill="#d53867"></path><path d="M0 15L22.8 17C45.7 19 91.3 23 137 25.8C182.7 28.7 228.3 30.3 274 30.5C319.7 30.7 365.3 29.3 411.2 27C457 24.7 503 21.3 548.8 20.7C594.7 20 640.3 22 686 23.5C731.7 25 777.3 26 823 24.2C868.7 22.3 914.3 17.7 937.2 15.3L960 13L960 0L937.2 0C914.3 0 868.7 0 823 0C777.3 0 731.7 0 686 0C640.3 0 594.7 0 548.8 0C503 0 457 0 411.2 0C365.3 0 319.7 0 274 0C228.3 0 182.7 0 137 0C91.3 0 45.7 0 22.8 0L0 0Z" fill="#c62368"></path></svg>